<?xml version="1.0" encoding="UTF-8"?><svg id="uuid-59fce8ae-b5ab-47a0-9005-cbd673d7ef5f" xmlns="http://www.w3.org/2000/svg" viewBox="0 0 304.9 74.9"><defs><style>.uuid-f8c20f79-59dc-4cb8-81e8-4676b0e8e7f6{fill:#fff;}</style></defs><g id="uuid-786785f2-f4e4-4a0a-bf91-ebb6fb3c94f3"><g><g><path class="uuid-f8c20f79-59dc-4cb8-81e8-4676b0e8e7f6" d="m38.7,74.9c-10.3,0-20.1-3.9-27.4-11C4,56.9,0,47.5,0,37.5S4,18,11.4,11C18.7,3.9,28.4,0,38.7,0s20.1,3.9,27.4,11c7.3,7.1,11.4,16.5,11.4,26.5s-4,19.4-11.4,26.5c-7.3,7.1-17,11-27.4,11Zm0-73.2C18.3,1.7,1.7,17.8,1.7,37.5s16.6,35.7,37,35.7,37-16,37-35.7S59.2,1.7,38.7,1.7Z"/><path class="uuid-f8c20f79-59dc-4cb8-81e8-4676b0e8e7f6" d="m47.1,18.3c3.3,0,5.9,13.3,5.9,29.7h4.7c0-17.7-4.8-32-10.7-32s-6.3,4.3-8.3,11c-2-6.7-4.9-11-8.3-11-5.9,0-10.7,14.3-10.7,32h4.7c0-16.4,2.7-29.7,5.9-29.7s5.9,12.3,5.9,27.4h4.7c0-15.2,2.7-27.4,5.9-27.4"/><path class="uuid-f8c20f79-59dc-4cb8-81e8-4676b0e8e7f6" d="m29.4,56.7c0,.6-.5,1.1-1.1,1.1s-1.1-.5-1.1-1.1.5-1.1,1.1-1.1,1.1.5,1.1,1.1"/><path class="uuid-f8c20f79-59dc-4cb8-81e8-4676b0e8e7f6" d="m33.6,57.4c0,.6-.5,1.1-1.1,1.1s-1.1-.5-1.1-1.1.5-1.1,1.1-1.1,1.1.5,1.1,1.1"/><path class="uuid-f8c20f79-59dc-4cb8-81e8-4676b0e8e7f6" d="m37.8,57.7c0,.6-.5,1.1-1.1,1.1s-1.1-.5-1.1-1.1.5-1.1,1.1-1.1,1.1.5,1.1,1.1"/><path class="uuid-f8c20f79-59dc-4cb8-81e8-4676b0e8e7f6" d="m42,57.7c0,.6-.5,1.1-1.1,1.1s-1.1-.5-1.1-1.1.5-1.1,1.1-1.1,1.1.5,1.1,1.1"/><path class="uuid-f8c20f79-59dc-4cb8-81e8-4676b0e8e7f6" d="m46.2,57.4c0,.6-.5,1.1-1.1,1.1s-1.1-.5-1.1-1.1.5-1.1,1.1-1.1,1.1.5,1.1,1.1"/><path class="uuid-f8c20f79-59dc-4cb8-81e8-4676b0e8e7f6" d="m50.4,56.7c0,.6-.5,1.1-1.1,1.1s-1.1-.5-1.1-1.1.5-1.1,1.1-1.1,1.1.5,1.1,1.1"/><path class="uuid-f8c20f79-59dc-4cb8-81e8-4676b0e8e7f6" d="m22.2,52.6h0c1.1,0,2,.9,2,2s-.2,1-.6,1.4c-.4.4-.9.6-1.4.6-1.1,0-2-.9-2-2s.2-1,.6-1.4c.4-.4.9-.6,1.4-.6m0-.8c-1.6,0-2.9,1.3-2.9,2.8s1.3,2.8,2.9,2.8,2.9-1.3,2.9-2.8-1.3-2.8-2.9-2.8"/><path class="uuid-f8c20f79-59dc-4cb8-81e8-4676b0e8e7f6" d="m58.3,54.6c0,1.5-1.3,2.8-2.9,2.8s-2.9-1.3-2.9-2.8,1.3-2.8,2.9-2.8,2.9,1.3,2.9,2.8"/></g><g><polygon class="uuid-f8c20f79-59dc-4cb8-81e8-4676b0e8e7f6" points="300.2 46.8 299.4 46.8 299.4 46.3 301.7 46.3 301.7 46.8 300.8 46.8 300.8 49.2 300.2 49.2 300.2 46.8"/><polygon class="uuid-f8c20f79-59dc-4cb8-81e8-4676b0e8e7f6" points="304.9 49.2 304.3 49.2 304.3 47.4 303.7 48.5 303.2 48.5 302.7 47.4 302.7 49.2 302.1 49.2 302.1 46.3 302.6 46.3 303.5 48 304.3 46.3 304.9 46.3 304.9 49.2"/><polygon class="uuid-f8c20f79-59dc-4cb8-81e8-4676b0e8e7f6" points="111.3 20.2 118.1 20.2 118.1 49.2 111 49.2 111 33.9 106.3 42.7 100.5 42.7 95.8 33.9 95.8 49.2 88.7 49.2 88.7 20.2 95.5 20.2 103.4 36 111.3 20.2"/><path class="uuid-f8c20f79-59dc-4cb8-81e8-4676b0e8e7f6" d="m121,39.7v-2.8c0-5.7,3.9-9.9,11-9.9s10.4,3.7,10.5,8.9h-6.5c-.1-1.8-1.4-3.3-3.9-3.3s-3.9,1.6-3.9,4v3.6c0,2.4,1.2,4,3.9,4s3.8-1.6,3.9-3.3h6.5c-.1,5.2-4.4,8.9-10.5,8.9s-11-4.2-11-9.9"/><path class="uuid-f8c20f79-59dc-4cb8-81e8-4676b0e8e7f6" d="m158.4,20.2c8.3,0,12.5,4.8,12.5,11.5v6c0,6.7-4.2,11.5-12.5,11.5h-13.1v-29h13.1Zm5.1,11.5c0-3.7-2-5.6-6.5-5.6h-4.5v17.3h4.5c4.5,0,6.5-1.9,6.5-5.6v-6Z"/><path class="uuid-f8c20f79-59dc-4cb8-81e8-4676b0e8e7f6" d="m180.6,40.5v.5c0,2.2,1.3,3.8,3.9,3.8s3.2-1,3.6-2.1h6.3c-.8,4-4.9,6.9-10,6.9s-10.8-3.6-10.8-9.8v-2.7c0-6,3.8-10.2,10.6-10.2s10.3,4.4,10.3,9.6v4h-14Zm0-4.1h7.4v-.8c0-2.2-1.1-3.8-3.6-3.8s-3.7,1.6-3.7,4.1v.5Z"/><rect class="uuid-f8c20f79-59dc-4cb8-81e8-4676b0e8e7f6" x="197.5" y="19" width="7.2" height="30.2"/><path class="uuid-f8c20f79-59dc-4cb8-81e8-4676b0e8e7f6" d="m212.1,18.7c2.4,0,4,1.5,4,3.7s-1.6,3.7-4,3.7-4-1.5-4-3.7,1.6-3.7,4-3.7m-3.6,30.4v-21.7c2.4.7,4.8.7,7.2,0v21.7h-7.2Z"/><polygon class="uuid-f8c20f79-59dc-4cb8-81e8-4676b0e8e7f6" points="226.3 49.2 218.7 27.5 225.8 27.5 229.9 42.1 233.9 27.5 241 27.5 233.4 49.2 226.3 49.2"/><path class="uuid-f8c20f79-59dc-4cb8-81e8-4676b0e8e7f6" d="m248.5,40.5v.5c0,2.2,1.3,3.8,3.9,3.8s3.2-1,3.6-2.1h6.3c-.8,4-4.9,6.9-10,6.9s-10.8-3.6-10.8-9.8v-2.7c0-6,3.8-10.2,10.6-10.2s10.3,4.4,10.3,9.6v4h-14Zm0-4.1h7.4v-.8c0-2.2-1.1-3.8-3.6-3.8s-3.7,1.6-3.7,4.1v.5Z"/><path class="uuid-f8c20f79-59dc-4cb8-81e8-4676b0e8e7f6" d="m279.2,34.2c-.4,0-.9-.1-1.6-.1-3.2,0-4.5,1.6-4.5,5.2v9.9h-7.2v-21.7h6.8v3.8c.6-3.1,2.6-4.1,5.3-4.1s1,0,1.2.2v6.8Z"/><path class="uuid-f8c20f79-59dc-4cb8-81e8-4676b0e8e7f6" d="m284.6,50.7c.7.2,1.6.3,2.4.3,1.2,0,1.8-.3,2.2-1.3l.2-.5-8.1-21.7h7.1l4.3,14.6,3.6-14.6h7.2l-7,21.7-.6,1.9c-1.3,3.5-3.4,5-7.4,5s-2.7-.2-3.7-.6v-4.8Z"/></g></g></g></svg>