<?xml version="1.0" encoding="UTF-8"?><svg id="uuid-55e9a7e6-51ef-4733-828c-1e569e3573fa" xmlns="http://www.w3.org/2000/svg" viewBox="0 0 259.5 65.7"><defs><style>.uuid-f09b0e4c-e151-4e5b-885b-eae32cc3e922{fill:#fff;}</style></defs><g id="uuid-33b09c56-86a1-41ef-b34e-e712993bbdda"><g><polygon class="uuid-f09b0e4c-e151-4e5b-885b-eae32cc3e922" points="41.9 48.9 41.9 48.9 41.9 48.9 41.9 48.9"/><polygon class="uuid-f09b0e4c-e151-4e5b-885b-eae32cc3e922" points="42 49 42 49 42 49 42 49"/><g><g><path class="uuid-f09b0e4c-e151-4e5b-885b-eae32cc3e922" d="m256.9,11.6c-1.7-2.1-4.3-3.2-7.8-3.2s-6.1,1.1-7.8,3.2c-1.7,2.1-2.6,4.7-2.6,7.6s.9,5.5,2.6,7.6c1.7,2.1,4.3,3.2,7.8,3.2s6.1-1.1,7.8-3.2c1.7-2.1,2.6-4.7,2.6-7.6s-.9-5.5-2.6-7.6Zm-4.2,12.3c-.8,1.1-2,1.7-3.6,1.7s-2.7-.6-3.6-1.7c-.8-1.1-1.3-2.7-1.3-4.7s.4-3.6,1.3-4.7c.8-1.1,2-1.6,3.6-1.6s2.7.5,3.6,1.6c.8,1.1,1.2,2.7,1.2,4.7s-.4,3.6-1.2,4.7Z"/><path class="uuid-f09b0e4c-e151-4e5b-885b-eae32cc3e922" d="m213.1,9.8c-1.7-.9-3.7-1.3-6-1.3-3.4,0-5.9.9-7.3,2.7-.9,1.1-1.4,2.6-1.5,4.4h5.1c.1-.8.4-1.4.8-1.9.5-.6,1.4-.9,2.7-.9s2,.2,2.6.5c.6.3.9.9.9,1.7s-.4,1.2-1.1,1.5c-.4.2-1.1.3-2.1.5l-1.8.2c-2.1.3-3.6.7-4.7,1.3-1.9,1.1-2.9,2.9-2.9,5.4s.6,3.4,1.8,4.5c1.2,1.1,2.7,1.5,4.6,1.6,11.6.5,11.5-6.1,11.6-7.5v-7.6c0-2.5-.9-4.1-2.6-5Zm-2.7,11.6c0,1.8-.5,3-1.5,3.7-1,.7-2.1,1-3.2,1s-1.4-.2-1.9-.6c-.5-.4-.8-1.1-.8-2s.4-1.8,1.3-2.3c.5-.3,1.3-.5,2.4-.7l1.2-.2c.6-.1,1.1-.2,1.4-.4.3-.1.7-.3,1-.5v2Z"/><path class="uuid-f09b0e4c-e151-4e5b-885b-eae32cc3e922" d="m186.6,13c1.3,0,2.3.4,2.9,1.2.4.6.7,1.3.8,2.1h5.7c-.3-2.9-1.3-4.9-3-6.1-1.7-1.1-3.9-1.7-6.6-1.7s-5.6,1-7.4,2.9c-1.8,1.9-2.7,4.6-2.7,8.1s.8,5.6,2.4,7.5c1.6,1.9,4.2,2.9,7.6,2.9s6-1.2,7.8-3.5c1.1-1.4,1.7-3,1.8-4.6h-5.7c-.1,1.1-.5,1.9-1,2.6-.5.7-1.5,1-2.8,1s-3.1-.8-3.8-2.5c-.4-.9-.6-2.1-.6-3.6s.2-2.8.6-3.8c.7-1.8,2-2.7,3.9-2.7Z"/><path class="uuid-f09b0e4c-e151-4e5b-885b-eae32cc3e922" d="m174.8,8.6c-11.8,0-11.1,10.4-11.1,10.4v10.6h5.3v-9.9c0-1.6.2-2.8.6-3.6.7-1.4,2.2-2.1,4.3-2.1s.4,0,.6,0c.3,0,.6,0,.9,0v-5.4c-.2,0-.4,0-.5,0,0,0-.2,0-.3,0Z"/><path class="uuid-f09b0e4c-e151-4e5b-885b-eae32cc3e922" d="m155.2,24c-.2.3-.5.6-.7.8-.8.6-1.8.8-3,.8s-2-.2-2.8-.7c-1.3-.8-2.1-2.2-2.2-4.2h14.8c0-1.8,0-3.1-.2-4-.2-1.6-.8-3-1.6-4.2-.9-1.4-2.1-2.4-3.5-3-1.4-.6-3-.9-4.8-.9-3,0-5.4.9-7.3,2.8-1.9,1.9-2.8,4.6-2.8,8.1s1,6.5,3.1,8.1c2.1,1.7,4.4,2.5,7.1,2.5s5.8-1,7.6-3c1-1,1.6-2.1,1.9-3.1h-5.7Zm-7.2-9.9c.7-.8,1.8-1.2,3.2-1.2s2.3.4,3.2,1.1c.8.7,1.3,1.8,1.4,3.2h-9.1c.2-1.3.7-2.4,1.4-3.1Z"/><path class="uuid-f09b0e4c-e151-4e5b-885b-eae32cc3e922" d="m139,29.6h-4.9v-12.3c0-1.1-.4-3.8-3.6-3.8s-3.7,1.5-3.7,3.8v12.3h-4.9v-12.3c0-1.1-.3-3.8-3.6-3.8s-3.7,1.5-3.7,3.8v12.3h-4.9v-12.2c0-5.1,3.4-8.9,8.6-8.9s4.7,1.1,6.1,2.8c1.4-1.7,3.6-2.8,6.1-2.8,5.3,0,8.5,3.7,8.5,8.9v12.2Z"/><path class="uuid-f09b0e4c-e151-4e5b-885b-eae32cc3e922" d="m237.1,2.1s-5.4-.6-5.4,3.7v5.7c-.6-1-1.4-1.7-2.3-2.2-1-.5-2-.8-3.3-.8-2.7,0-4.8,1-6.4,3-1.6,2-2.4,4.9-2.4,8.3s.8,5.5,2.4,7.4c1.6,1.9,4.8,2.8,7.6,2.8,9.8,0,9.7-8.4,9.7-8.4V2.1Zm-6.4,21.8c-.8,1.1-1.9,1.7-3.4,1.7s-2.6-.6-3.4-1.7c-.7-1.1-1.1-2.8-1.1-4.6s.4-3.2,1.1-4.4c.7-1.2,1.9-1.8,3.4-1.8s1.9.3,2.7,1c1.3,1.1,1.9,3,1.9,5.5s-.4,3.2-1.2,4.3Z"/></g><g><path class="uuid-f09b0e4c-e151-4e5b-885b-eae32cc3e922" d="m175.9,55.1c-.2.3-.5.6-.7.8-.8.6-1.8.8-3,.8s-2-.2-2.8-.7c-1.3-.8-2-2.2-2.1-4.2h14.7c0-1.7,0-3.1-.2-4-.2-1.6-.8-3-1.6-4.2-.9-1.4-2.1-2.3-3.5-3-1.4-.6-3-.9-4.7-.9-3,0-5.3.9-7.2,2.8-1.8,1.9-2.8,4.5-2.8,8s1,6.4,3.1,8.1c2,1.7,4.4,2.5,7.1,2.5s5.8-1,7.6-2.9c1-1,1.6-2,1.8-3.1h-5.6Zm-7.1-9.9c.7-.8,1.8-1.1,3.1-1.1s2.3.4,3.1,1.1c.8.7,1.3,1.8,1.4,3.2h-9.1c.2-1.3.7-2.3,1.4-3.1Z"/><path class="uuid-f09b0e4c-e151-4e5b-885b-eae32cc3e922" d="m139.2,39.8c-1.2,0-2.3.3-3.3.8-1,.5-1.7,1.3-2.3,2.2v-9.6s-5.4-.5-5.4,3.8v15.6s-.1,8.4,9.7,8.4,6-.8,7.6-2.8c1.6-1.9,2.4-4.4,2.4-7.4s-.8-6.2-2.4-8.2c-1.6-2-3.7-3-6.4-3Zm2.2,15.3c-.7,1.1-1.9,1.7-3.4,1.7s-2.6-.6-3.4-1.7c-.8-1.1-1.2-2.6-1.2-4.3s.6-4.3,1.9-5.3c.8-.6,1.7-1,2.7-1,1.6,0,2.7.6,3.4,1.8.7,1.2,1.1,2.6,1.1,4.4s-.4,3.4-1.1,4.5Z"/><path class="uuid-f09b0e4c-e151-4e5b-885b-eae32cc3e922" d="m160.9,39.8c0,0-.2,0-.3,0-11.8,0-11.1,10.4-11.1,10.4v10.4h5.3v-9.8c0-1.6.2-2.8.6-3.6.7-1.4,2.2-2.1,4.3-2.1s.4,0,.6,0c.3,0,.6,0,.9,0v-5.4c-.2,0-.4,0-.5,0Z"/><path class="uuid-f09b0e4c-e151-4e5b-885b-eae32cc3e922" d="m109.8,37.1v23.5h5v-27.4s-5-.2-5,3.8Z"/><g><rect class="uuid-f09b0e4c-e151-4e5b-885b-eae32cc3e922" x="118.9" y="33.2" width="5.4" height="5.3"/><rect class="uuid-f09b0e4c-e151-4e5b-885b-eae32cc3e922" x="118.9" y="40.3" width="5.4" height="20.3"/></g></g></g><g><path class="uuid-f09b0e4c-e151-4e5b-885b-eae32cc3e922" d="m95,30.7C94.8,13.6,73.4-.2,47.2,0,21,.2-.1,14.3,0,31.5c0,.4,0,1.7,0,1.8.2,18.1,18.9,32.7,47.8,32.5,29.1-.2,47.4-15.1,47.2-33.2v-1.8Zm-47.2,29.6c-25.2.2-45.8-12.7-45.9-28.8,0-.6,0-1.3,0-1.9l.3-2c0-.2.1-.4.2-.6,1,.3,1.8.5,2.2.6,11.6,2.6,16.2,5.4,17.6,6.4.9-.8,2.1-1.3,3.3-1.3h0c1.4,0,2.7.6,3.6,1.6,1.5-.9,3.2-1.1,5-.5,1.2.4,2.1,1.2,2.7,2.2,1.2-.4,2.6-.3,3.9.3,2.6,1.1,3,3.5,2.9,5.1,3.1,0,5.6,2.6,5.6,5.7,0,.7-.1,1.5-.4,2.2.9.4,2.3,1,3.6.9,1.2-.2,1.6-.6,1.7-.7,0,0,0,0,0,0l-3.5-3.9c-.6-.6-.8-1.2-.4-1.6.2-.2.4-.3.6-.3.4,0,.8.3,1,.5,1.9,1.6,4.2,3.9,4.2,4h0c0,.1.2.2.7.3.2,0,.3,0,.5,0,.4,0,1.3,0,1.9-.6.1-.1.2-.2.4-.4v-.2c.7-.8.2-1.5,0-1.7l-4.3-4.8s-.2-.2-.3-.4c-.5-.6-.3-1,0-1.2.2-.2.4-.3.6-.3.4,0,.7.3,1.1.5,1.1,1,2.7,2.5,4.2,4l.9.9c.1,0,.7.4,1.5.4.6,0,1.3-.2,1.9-.6.9-.6,1.3-1.3,1.3-2.2,0-.8-.7-1.4-.7-1.4l-5.9-5.9c-.6-.5-.8-1.1-.4-1.6.1-.2.4-.3.6-.3.4,0,.7.3,1,.5,1,.9,3.3,2.9,6.6,5.9.2.2.3.3.3.3,0,0,.6.4,1.5.4.6,0,1.2-.2,1.8-.6.6-.4,1-1,1-1.6,0-1.2-.8-1.9-.8-1.9-1.6-1.4-14.9-13.1-18-15.4-1.8-1.4-2.8-1.7-3.8-1.8-.1,0-.2,0-.3,0-.4,0-.9,0-1.4.2-1.6.4-3.7,1.9-5.1,3.1-1.9,1.5-3.7,2.9-5.5,3.3-.5.1-1.2.2-1.8.2-1.6,0-3.4-.5-4.4-1.1-.6-.4-1-.8-1.2-1.3-.5-1.2.3-2.2.6-2.5l4-4.3s0,0,0,0c-.6.1-1.1.3-1.8.5-1.5.4-2.9.8-4.4.8h0c-.5,0-1,0-1.5,0h-.5c-2.1-.2-8.8-1.9-14.7-4.2,0,0,0,0,0,0l1.6-1.3C21.7,5.8,33.8,1.9,47.2,1.8c13.9-.1,26.4,3.8,34.8,10l1.6,1.3c.1,0,.2.2.3.3l-.5.2c-4.7,2.1-9,3.2-13.3,3.2h0c-4.1,0-8.2-1-12.2-2.9-.5-.2-4.6-2.1-8.7-2.1-.1,0-.2,0-.3,0-6.6.1-9.5,3-12.6,6.1l-4,4.3c0,.1-.1.2-.1.2.5.5,1.6.9,2.9.9.6,0,1.1,0,1.6-.2,1.2-.3,2.9-1.6,4.5-2.9h.1c1.8-1.5,3.6-3,5.5-3.5.8-.3,1.6-.4,2.4-.4h0c.8,0,1.4.2,1.9.3,1,.3,2.1,1,3.8,2.2,2.7,2,12.1,10.2,17.6,15,3-1.3,10.8-4.5,20.3-6.6,0,0,0,0,0,0,0,0,0,.1,0,.2l.3,2c0,.5,0,1,0,1.5.1,16.1-20.2,29.4-45.4,29.6Z"/><path class="uuid-f09b0e4c-e151-4e5b-885b-eae32cc3e922" d="m43.5,43.4h0c-.5,0-1.1.2-1.5.3-.3,0-.4.1-.5.1h-.2c0-.1-.1-.2-.1-.3-.1-.2,0-.4.1-.9,0,0,.6-1.6,0-3-.2-.6-.7-1.2-1.5-1.5-.6-.2-1.1-.4-1.6-.4-1.1,0-1.8.6-2.1.9,0,0-.2.2-.3.2s-.2,0-.3-.3c0,0,0-.1,0-.2,0-.2,0-.6-.2-1-.3-.6-.8-1.3-1.8-1.7-.4-.1-.8-.2-1.3-.2-2.2,0-3.3,1.8-3.4,1.9l-.4.7h0c0-.1,0-.1,0-.1,0,0-.1-.8-.1-.8,0-.2,0-.3-.1-.5-.4-1.1-1.5-1.9-2.7-1.9-1.6,0-2.9,1.3-2.9,2.9,0,.4,0,.7.2,1,.4,1,1.5,1.8,2.7,1.8.7,0,1.3-.5,2-.8.2,0,.4-.1.4,0,0,0,0,.2,0,.2,0,0,0,.2,0,.3,0,.4-.2,1.3.1,2.1.3.9.9,1.7,2.3,2.2.3.1.7.2,1,.2.6,0,1.2-.2,1.8-.6.1-.1.3-.2.4-.1,0,0,.2,0,.3.1,0,0,0,.1,0,.2,0,.1,0,.2,0,.3,0,.2,0,.6,0,.9.2.6.7,1.3,2,1.8.4.2.8.3,1.2.3.8,0,1.4-.4,1.8-.8.2-.1.3-.2.5-.2.2,0,.3.2.4.3,0,.1,0,.3,0,.4,0,.5.1.9.3,1.3.6,1.3,1.9,2.1,3.4,2.1,2.1,0,3.7-1.7,3.7-3.7,0-.5,0-.9-.3-1.4-.6-1.3-1.9-2.2-3.4-2.2Z"/></g></g></g></svg>