<svg xmlns="http://www.w3.org/2000/svg" xmlns:xlink="http://www.w3.org/1999/xlink" viewBox="0 0 331.2 212.8"><defs><style>.a047613c-7bf9-42e1-a458-bfe24ecd26a1{fill:none;}.ef93d21f-5a19-4783-bc4b-90ee534cb930{fill:#fff;}.a15ac171-f4d5-4c66-8207-63f559daaed9{fill:#0d1126;}.a43176dc-1f73-446d-86bc-cb4e418b4e16{clip-path:url(#ad2be686-7bd8-4996-8c2e-e0bd48b7c2f2);}</style><clipPath id="ad2be686-7bd8-4996-8c2e-e0bd48b7c2f2" transform="translate(0)"><rect class="a047613c-7bf9-42e1-a458-bfe24ecd26a1" y="27.1" width="331.2" height="185.6"/></clipPath></defs><g id="a08f12af-a3b4-4ebc-8867-d872e3fcde8e" data-name="Capa 2"><g id="aa1709fe-4b22-403c-b1ba-61acc94a850f" data-name="Layer 2 copy"><path class="ef93d21f-5a19-4783-bc4b-90ee534cb930" d="M151.2,4.6a2.5,2.5,0,1,1-2.5,2.5,2.5,2.5,0,0,1,2.5-2.5Zm0-.4a2.9,2.9,0,1,0,3,2.9,2.9,2.9,0,0,0-3-2.9Zm-.5,3.1h.5c.2,0,.5,0,.5.4s0,.9.2,1.1h.5a2.8,2.8,0,0,1-.1-.9c0-.7-.2-.8-.6-.9h0c.4-.1.7-.3.7-.7a.8.8,0,0,0-.9-.9h-1.4V8.8h.6Zm0-1.5h.7a.5.5,0,0,1,.5.5.5.5,0,0,1-.5.5h-.7Z" transform="translate(0)"/><path class="ef93d21f-5a19-4783-bc4b-90ee534cb930" d="M148.8,31v-.4c-.3,0-.3.2-.5.2s-.2,0-.3-.2h.1a.7.7,0,0,1,.1-.5c-.2-.1-.2,0-.2.1h-.3a.1.1,0,0,1-.1-.1c.1-.1.2,0,.3,0s-.1-.6-.3-.6h.1c-.3-.1-.5.1-.7.4h-1.3c-.2,0-.5-.1-.7.1s-.2.3-.3.6h-.2c0-.2.1-.4-.1-.5h-.4c0,.2.1.3,0,.4s-.4.2-.6.1-.6.1-.9.1-.2-.3-.2-.5a4,4,0,0,1,1.5-.3c.1-.2,0-.4,0-.6h-.6c-.1,0-.1.2-.2.3a2.2,2.2,0,0,0-1.1.2c-.1-.1-.1.2-.1.3a.6.6,0,0,0-.1.4.8.8,0,0,1,.1.4c0-.1-.2-.1-.4-.2l-.4.2s0-.1-.1,0h-.4l-.3-.2c-.2,0-.5.1-.6-.1s0-.3-.1-.4v-.2c-.1-.1-.2-.2-.2-.3l-.3-.3h-.3c-.4.1-.2,0-.2-.1a2.2,2.2,0,0,0-.8,0l-.8-.5c-.1-.1-.4,0-.5,0s-.2.3-.1.4l.3.2a.4.4,0,0,1-.1.3,1.1,1.1,0,0,1,.8.2c.2,0,.1.3.1.5a.7.7,0,0,1-.4.5c-.1.1-.3,0-.5,0h-.2a1.1,1.1,0,0,1-.8-.3c-.1-.1,0-.3-.1-.3s-.2.2-.2.2h-.2c-.2,0-.4-.1-.3-.3h-.2v-.3h-.7c.1.1-.1.2-.2.2s-.5-.3-.3-.4h1.3v-.4l.4-.2c0-.2.1-.5-.2-.6h-.5a.6.6,0,0,1-.1.4h-.3v-.2h-.2c-.4.1-.4-.3-.9-.1s-.2.1-.1.1h-.5l-.4-.3a.6.6,0,0,0-.8,0,.7.7,0,0,0,.1,1c.1,0,.2.4,0,.4l-.8.2c-.1,0,0-.1-.1-.2h-.6c-.3-.1-.1-.6-.3-.9h-.4c-.1.1,0,.3-.1.3h-.5c-.2,0-.4.1-.5,0s0-.5-.2-.7-.5,0-.7,0a1,1,0,0,0-.4.5c.1.1.1.3,0,.3h-.7a.4.4,0,0,0,0,.5,1.3,1.3,0,0,1,.1.6c0,.1-.2.1-.3.1s-.4-.2-.4-.4h-.5a.1.1,0,0,1-.1-.1,1,1,0,0,0-.7.2l-.3.2v.2c0,.1,0,.2-.1.2V31h.1c.2.2-.1.3-.1.5s-.5.1-.7,0h0c-.2,0-.4-.2-.6-.3s.2-.5.3-.7l.7.2c0-.1,0-.3.2-.3s.2-.1.1-.3a.1.1,0,0,1,.1-.1v-.3h.1c.1,0,.1,0,.1.1l.7-.2h.1c.1-.1.2-.2.1-.3h.1a.5.5,0,0,0,.1-.7h-.1c-.1,0-.2,0-.2-.1h-.2s-.1,0,0-.1-.4.2-.5,0h-.2c-.2-.3-.5-.2-1-.3h0c-.3-.1-.2.3-.6.2v.2s0,.1-.1,0v.2c.1,0,.2.3.4.2l.3.2h-.3c-.1.1-.2.1-.2-.1s-.3.2-.4,0h-.2a.4.4,0,0,1-.1-.3h-.2c-.1-.3-.4-.1-.6-.2s-.3.1-.6.2.4.2.4.5h.2c.1,0-.1.2-.1.3s0,.2,0,.2h-.8l-.9-.5h-.2c0,.1-.1,0-.1-.1h-.2l.4-.2h0c0-.1,0-.1.1-.1v-.4a.4.4,0,0,0-.5,0c0,.1-.2.1-.1.3s-.4-.2-.6-.1h0a.7.7,0,0,1-.6.1h0a2.1,2.1,0,0,0-1.1-.1h0c-.4.3-.5-.2-.8-.1h-.4c0,.2-.2.1,0,.3s0,.2-.1.2.4.5.5.7h-.2a1.5,1.5,0,0,0-1.1.4h-.4c.1-.2-.2-.5,0-.6h0l-.2-.3c-.1,0-.1-.3-.3-.1s-.1.3-.2.5h0c-.3-.1-.2.2-.5.2a.1.1,0,0,1-.1-.1h-.4c-.1.1-.2-.1-.2-.2v-.2a3.5,3.5,0,0,0,2-2.9,6.5,6.5,0,0,0,4.5,1.2,7.9,7.9,0,0,0,5.2-2.6l2.3,1.6a4.2,4.2,0,0,0,2.8.8,3.7,3.7,0,0,0,3.4-4l1,.8a5.2,5.2,0,0,0,4,.8,6.5,6.5,0,0,0,2.6,1.8,4.1,4.1,0,0,0,4.3-1.3c.7-.8,1-1.3,1-3.2a52.8,52.8,0,0,1,1.8-7.8,6,6,0,0,0,.5-2.9,4.1,4.1,0,0,0-1.1-2.5l-1.3-1.2a2.9,2.9,0,0,0-1-.7,4.7,4.7,0,0,0-3.3-.1,5.1,5.1,0,0,0-4.2.6,8.6,8.6,0,0,0,.1-1.5,6.7,6.7,0,0,0-.8-2.3,8.4,8.4,0,0,0-2.2-2.4,3.8,3.8,0,0,0-2.8-.8A4,4,0,0,0,127,3.6c-.5,1.6-.7,1.9-2.2,6.8-4-3.3-6.9-1.7-7.5-1.3a14.2,14.2,0,0,0-3.8,3.6c-.2-.3-2.2-2.4-3.9-2.3a6.8,6.8,0,0,0,.3-1.2c3.5,0,5.5-4.9,0-7.8a11.6,11.6,0,0,0-16,5.1,9,9,0,0,0-.9,5.6,3,3,0,0,0-1.2.2c-3.3-2.4-6.1-1.5-7.3,1.4a3.9,3.9,0,0,0-4.3-.3c-.9-.2-2.9-.4-5.4,1.7a5,5,0,0,0-.9-2.5A20.1,20.1,0,0,0,71.4,10,4.3,4.3,0,0,0,67,9.5c-2.2-1.8-4.1-2.1-6-.9L58.2,7.4a4.4,4.4,0,0,0-3.5.5c-1.6.9-8.4,5.3-10,6.5a4.6,4.6,0,0,0-1.9,3.9,4,4,0,0,0,1.7,2.8,9.7,9.7,0,0,0,3.3,1.4,6.2,6.2,0,0,0,2,.4c-.2.5-1.2,3.6-1.6,4.9s-.4,4,2,5.4a18,18,0,0,0,3.1,1.4,4.1,4.1,0,0,0,4-1c1.1.7,4.1,2.6,6.4.8a5.9,5.9,0,0,0,1.5,1.7,13.3,13.3,0,0,0,2.2,1.5c-.3.2-.2.6-.5.8h0c-.2-.3-.7-.2-.9-.1s-.1.1-.2.1-.1-.1-.1-.2h-.2a1.8,1.8,0,0,0-1,.4.1.1,0,0,1-.1-.1h-.5a.1.1,0,0,1-.1-.1h-.2l-.3.5a.7.7,0,0,0,.5.7v.3c-.3,0-.3-.4-.6-.4h0c0,.1-.1,0-.2.1s-.8-.2-1.3-.2h0c-.2.1-.4.2-.5,0s-.5.1-.6.3a.1.1,0,0,1-.1-.1h-.2c-.5,0-.5.3-.8.4s-.1.6-.2.8.2.2.2.5h-.7c-.1-.2-.1-.7-.3-.8s-.3-.2-.5-.1h-.6c0,.1-.3.1-.1.3h-.1c0,.1,0,.2.1.2l-.5.2a.9.9,0,0,1-.1-.5c-.1-.3-.5.1-.6-.2h0a.1.1,0,0,1-.1.1c-.3.1,0,.6.1.7h0l-1.3.5h-.2c-.1,0-.1,0-.1-.1s-.4.2-.6.1h-.4c0,.1-.2.1,0,.3s0,.2-.1.2v.2c-.1.2-.1.5-.4.5s-.4-.1-.3-.3a.1.1,0,0,1,.1-.1c0-.3-.3-.2-.3-.4h-.3a.1.1,0,0,1-.1.1l.2.7c.1,0,0,.1.1.2a1,1,0,0,1-.4.5.1.1,0,0,1-.1-.1c-.3.2-.4-.2-.7-.1h-.5c-.2,0-.4.2-.5,0h-.1a.5.5,0,0,0-.5.5,1.3,1.3,0,0,0,.3.9v.5a.4.4,0,0,0,.5.4c.5,0,.5-.6.9-.9a.1.1,0,0,0,.1.1h.1c.1.1.4.1.4.4s0,.2-.1.2v.2c-.3,0-.2.5-.6.4a1.2,1.2,0,0,1-1.1.9V47h-.1l.2.6h.1c.1-.1.2-.1.2.1s.6.4.9.5-.6-.1-.9,0v.2c-.1,0-.1.1-.1,0s.2.5,0,.5l.2.9c.3.4.8.3,1.1.7s-.1.4-.3.4-.2.5-.1.7.5.2.7.4-.3,1,.1,1.2.5.2.9.1-.1-.4-.1-.6.9,0,1-.3.9-.2,1.2-.5a.4.4,0,0,0,.1-.3h.5c.2,0,0-.4,0-.5s1.4,0,2-.5,0,.3.2.3h.4a5,5,0,0,1,1.2-.8c.3,0-.1-.8,0-1.1H60v-.2c.3.2.6.8.8.8s1-.2,1.3-.9.5.7.8.4v-.3H65c.3-.1.4-.7.7-.7s.7.3.8.1.3-.3.4-.4h.4c.4.1.6-.2.9-.4s.2.5.4.7a.5.5,0,0,0,.6.3c0-.1.2-.2,0-.4s0-.2.1-.1v-.2c0-.1-.1-.4.1-.3s.1-.7.5-.9.7-.1.9.2l.8-.5c.1,0,.1.1.1.2h.2v-.2H72c.1,0,.2,0,.2.1h.2c0-.1.1,0,.2-.1a1.9,1.9,0,0,1-.2-.8l.6-.4h0c.1.6.6.1.8.3h0c.2,0,.4-.1.6,0h0c.2,0,.4-.2.5,0h.3c0-.2.2-.3.1-.5H76c.1.2.3.3.3.5h1a.7.7,0,0,0,.2-.8c.1,0,0-.3.2-.2s.1,0,.1.1h1.4c.3-.2.4.2.7.1l.6-.4c.1,0,.4-.2.4,0h.2c0-.2-.2-.4,0-.5s.1-.9.7-.8.4.5.4,1a1.1,1.1,0,0,0,.2-.6.1.1,0,0,0,.1-.1h0v-.2h.4V43c.2,0,.2-.3.4-.3a.8.8,0,0,1,.2.7c0-.1.3-.1.2-.3s.3-.2.5-.3v-.2c0-.1,0-.2.1-.2h0c0-.1,0-.3.2-.3s.2,0,.2.1.5-.2.8-.3.2.1.2.2a.6.6,0,0,0,.7.2V42c0-.1.1,0,.2-.1a.1.1,0,0,0,.1.1h.1c-.1-.2.1-.3.2-.5s.4-.1.5,0h.1c.2-.1.3.3.5.2a.6.6,0,0,1,.5-.3c0-.1.2-.1.1-.3s0-.1.1-.1v-.2c.1-.3.6-.2,1-.3h0c.2,0,.6-.1.8,0h0c.4-.2.2.5.5.4s0-.3,0-.3l.5-.3h.1c.3,0,.7,0,.8-.2h.1c.3-.1.8,0,1-.3s1-.3,1.4-.4h.2c.3-.2.9-.1,1.1-.4h.3s.1.1,0,.1.5-.1.7,0h0v-.2c-.1-.3.2-.3.2-.5s-.1-.2,0-.2v-.2c0-.1.1-.1.2-.1s.2,0,.2.1H98c.1.3.1.6.4.8s.5-.2.7-.4.2,0,.2.1.4-.1.6,0h.2a.1.1,0,0,0,.1.1h.3c-.2-.5.5-.3.5-.7a.1.1,0,0,0,.1.1c.2-.1.3.3.5.2s.6-.1.8-.4.4-.2.4-.3h.2c0-.1.2-.2.1-.3s0-.1.1-.1.1-.4.2-.5a.1.1,0,0,1,.1.1h.1c.1,0,.2,0,.2.2h.5c.1.3.5.2.7.3s.4-.2.3-.5.2.5.5.4h.2c.1-.1.2.1.2.2s.2.3.3.2,0-.6.1-.9h0a.1.1,0,0,1,.1.1c.3,0,.4-.2.6-.3v-.2c.3-.2.1.4.4.4s.4-.3.7-.3.4-.1.7-.1.1.1,0,.1.8.4,1.2.5a.1.1,0,0,1,.1.1v-.2h.1c.8.2.8-.6,1.5-.4h0c.3-.2.4.1.5.1s.2-.1.1-.3,0-.1.1,0v-.2c0-.1,0-.2.1-.2s-.1-.1-.1-.3,0-.2.1-.2h.4s.1,0,0,.1h.2q.1-.3.3-.3h.3c0,.2.1.4,0,.6h0c0,.2.2.2.3.3l.9-.5c.2-.1.3.1.4.2l.5-.7c.2.4.5.3.8.4h.1c.1,0,.1,0,.1.1h.2s.1,0,0,.1.5-.2.7-.1h0c.2,0,.4-.2.5,0h0c.5,0,.3-.6.7-.6s0,.1.1.2h.1c.1,0,.2,0,.2.1h.2c0-.1.1,0,.1.1h.4c-.1-.3.1-.3.2-.5s.1.1.1.2.1.2.3.1h0c.1-.2.4-.2.6-.1h.1c.1,0,.1,0,.1.1h.2s.1,0,0,.1.4-.2.6-.2v-.2a.1.1,0,0,1,.1-.1v-.2h.1c0-.3-.3-.2-.3-.5h.4c.1,0,.2-.1.3,0s.1.2.1.4a.1.1,0,0,1,.1.1h0c.3.1.2-.3.3-.5h1c.1,0,0,.1.1.2a1,1,0,0,0,.5.4h.2l.6.2c.2-.1.4-.4.6-.1s-.1,0,0,.1.5,0,.5-.2,0-.4,0-.6.2-.1.3-.2.4,0,.5.2a.4.4,0,0,1,.5,0c.4.1.3.7.6.9h.4l.7-.4c.4-.1.7.1,1,0a.1.1,0,0,0,.1.1h.1c.1.3.5.1.8.2h.2c.1.1.1-.1.2-.3h.1v-.2l.3-.2a1.3,1.3,0,0,1-.1-.6c.1-.1.1-.3.2-.4s.2-.2.2-.3.1-.5.2-.7h.3c.2,0,.2.2.2.4s-.3.2-.2.3.1.1,0,.2h0a.6.6,0,0,0,.1.6c.1.1.3,0,.3.1l-.2.2c-.1.1.1.3.2.3a.3.3,0,0,0,.5-.1c.1-.3.4-.4.7-.6h.2c0-.1-.1-.2-.1-.3h.2l.4.4h.2c.1,0,.3-.1.4.1a1,1,0,0,0,.2.7c0,.1.1-.1.1-.1s.2.1.2,0,.9,0,1.4-.2v-.2a.5.5,0,0,1,.8,0h.3a.1.1,0,0,0,.1.1c.2,0,.3-.2.4-.1l.4.3c0,.1.1.1.2.2s.2.1.3.1.4-.5.7-.6a10.9,10.9,0,0,1,2.6-.4h0l.3-.3h.2v.3l.5.2c.2.1.4,0,.5,0v-.3h.1c0-.2.3-.4.2-.6s.5-.2.5-.1.2.6.4.7h.3c0-.4-.2-.8,0-1v-.3c-.1.1-.3,0-.3-.2h-.6a1.2,1.2,0,0,1-1,0v-.2a.9.9,0,0,0,.8-.5l2-.2v.4h-.2a.1.1,0,0,1-.1-.1h-.2v.2a.1.1,0,0,1-.1.1v.2c.3,0,.2.2.3.3s.6.4,1,.1.3-.2.1-.4,0-.2.1-.2M68.2,38.6a.1.1,0,0,1-.1-.1h.1c0-.3-.2-.2-.2-.5s-.2,0-.3-.1h0c0-.1-.1-.1-.1-.2l.8.4h-.1a.4.4,0,0,1-.1.5m39.4-9.2c-.2-.3-.6-.2-1-.2h0c-.4-.1-.3.3-.6.2v.2h0c.1.1.2.3.4.2s.4.3.4.6.2-.1.4-.2.3.1.3.3h.2v.5h-.2c.1.1.1.2,0,.2V32c-.2,0-.5.1-.7,0h0c-.3.1-.5-.1-.8-.1a.3.3,0,0,0-.1.2h-.3V32h0v-.3h.4c0-.3.2-.6,0-1s-.2-.2-.3-.1-.2.1-.2-.1h-.2c-.1,0-.4.2-.4,0s-.2.2-.5.2.1.7.3.8.2-.1.4,0h-.6l-.3-.5v-.4c-.2.1-.4.1-.4,0v.2h-.2c-.1,0-.1,0-.1-.1h-.2c0,.1-.2.1-.1.4h-.1v.2h.2c.2.4,0,.5-.2.5s-.1-.3,0-.4v-.2h-.1c-.1-.1,0-.2,0-.3h0c-.1,0-.1-.2-.2-.3h-.3c-.3,0-.4-.3-.7-.1h-.1c.1.4.2.6.4.7l-.3.2h-.2a.1.1,0,0,1-.1-.1h-.4c-.1.1-.2.2-.2.3h-.2c-.1-.3-.1-.6-.3-.7l-.5.2h-.4a.1.1,0,0,1-.1-.1h-.1c-.1,0-.1-.1-.1-.2s-.3,0-.3,0,.2.3,0,.3V32h.1c-.3,0-.4-.4-.7-.4h-.1c-.7-.1-.6.7-1,.9s-.2-.2-.3-.4l-.5-.3c-.1,0-.1,0-.1-.1h-.7l-.5.4c0-.1,0-.1-.1-.1s-.4,0-.9-.1-.2.3-.1.5-.1,0-.1.1v.3h-.2c-.1,0-.2,0-.2-.1s-.5.1-.5.3-.2.1-.3,0-.1-.2-.2-.4h-.2a.3.3,0,0,1-.1.2c-.2,0-.3-.1-.6,0v.2a.1.1,0,0,1-.1.1l.2.6c-.3,0-.3-.5-.5-.6l-.8.4-.5.2c-.1-.1-.1-.3-.3-.2s-.2.1-.2-.1-.4.2-.5.1h-.8a.1.1,0,0,0-.1-.1c-.2.1-.3-.2-.5-.1a.1.1,0,0,0-.1-.1h-.2c0,.1-.2.2-.1.4s.1.1,0,.1v.2h.1a.1.1,0,0,0,.1.1h-.2c0-.1-.1,0-.2-.2s-.4-.3-.8-.1-.2.1-.1.3h0a.2.2,0,0,0-.2.2s-.1,0,0-.1h-.2c-.1,0-.1,0-.1-.1h-.5c0,.1-.1.2-.1.4H85c-.1-.2-.1-.5-.3-.7s-.7.6-1.1.8h-.2l-.3-.3h-.4a.1.1,0,0,1-.1-.1c-.5,0-.6.4-.8.7h-.4s0-.2-.1-.2h0a.7.7,0,0,0-.5-.3H80a2,2,0,0,1-.9.6V35c0,.1-.1.2-.2.3v.2c0,.1-.1.2,0,.3a.1.1,0,0,1-.1.1c-.2-.1-.5-.1-.5-.5h-.2c0,.1-.1,0-.2,0s-.4.2-.5.4h-.2l-.3-.5h-.2c0,.1-.2.2-.1.4s-.5,0-.5.1-.1,0-.1-.1h-.2c0-.1,0-.1-.1-.1s-.4.2-.7.3-.2.2-.2.3h-.3c-.1,0-.2-.2-.3-.1a4.2,4.2,0,0,0-.3-3.6c0-.1-.1-1-.2-1.7a4.7,4.7,0,0,0,3.3.4c1.7,1.6,3,2,4.4,1.9a4.2,4.2,0,0,0,3.5-3,3.9,3.9,0,0,0,6.2-3,9,9,0,0,0,.2-1.8,11.6,11.6,0,0,0,.9,1.4l2.2,1.9a4,4,0,0,0,5.7-1.1c.3.3,3.1,2.5,5.7.2a7.7,7.7,0,0,0,1.9,1.4Zm.2,0a.1.1,0,0,0,.1.1.1.1,0,0,1-.1-.1m2.4.6c0,.2-.2.3-.1.5H110c0,.1,0,.3-.1.3l-.6.3a.1.1,0,0,1-.1-.1c-.1,0-.3.1-.5,0h-.2l-.5-.2h.4c.1-.1.1-.3.3-.3a.8.8,0,0,0,.2-.5h1.7c-.1,0-.2.1-.4,0Z" transform="translate(0)"/><path class="a15ac171-f4d5-4c66-8207-63f559daaed9" d="M109.9,14.1a.6.6,0,0,0-.9-.1c-.5.5-1.9,1.9-3,3.2a2,2,0,0,0,.2-.6,1.6,1.6,0,0,0-.1-1,4.8,4.8,0,0,0-1.1-1.1c-.9-.7-.9,0-1.1.4s-2.5,6.8-2.8,7.8a1.4,1.4,0,0,0,.4,1.6l1.2,1c.3.3.7.4.8-.1l.6-2.2a15.3,15.3,0,0,1,3.6-5.3c-.2.7-.7,3.4-.8,4.1a3.2,3.2,0,0,0,.3,2.4,7.1,7.1,0,0,0,2,2.1c1.2.6.9-.3.8-1.2a20.4,20.4,0,0,1,1.2-8.5,1.3,1.3,0,0,0,0-1.2,5,5,0,0,0-1.3-1.3Z" transform="translate(0)"/><path class="a15ac171-f4d5-4c66-8207-63f559daaed9" d="M98.7,15.4c-.1-.1-.5-.5-1,.3a48,48,0,0,0-3.1,7.5c-.2.6-.3.9.4,1.6a7.5,7.5,0,0,0,1.3,1.1c.4.4.9.5,1-.5a42.8,42.8,0,0,1,2.7-7.9.9.9,0,0,0-.1-1.1,4.8,4.8,0,0,0-1.2-1Z" transform="translate(0)"/><path class="a15ac171-f4d5-4c66-8207-63f559daaed9" d="M82.7,16.6q-.6-.5-.9,0a2.1,2.1,0,0,0-.6,1.2L79.9,17a1.7,1.7,0,0,0-1.7,0c-2,.9-4.5,4.4-5.3,7.5a2.5,2.5,0,0,0,.2,1.5,10.2,10.2,0,0,0,2.1,2,1.4,1.4,0,0,0,1.4,0,5.8,5.8,0,0,0,1.9-1.6c.2,2.3,1.1,3,2,3.4s1.1-.3,1.1-.8c-.2-3.2,1.6-8.8,2-9.7a2.2,2.2,0,0,0,.1-1.6,9,9,0,0,0-1-1.1Zm-3.7,6c-1.3,1.8-2.6,3-3,2.7s.1-2,1.4-3.8,2.6-2.8,3-2.6-.2,2-1.4,3.7Z" transform="translate(0)"/><path class="a15ac171-f4d5-4c66-8207-63f559daaed9" d="M69.3,12.7c-.2,0-.6-.3-1,.1a30,30,0,0,0-3.6,4c.1-.2.8-2.7.9-3.1a.9.9,0,0,0-.1-.8,5.1,5.1,0,0,0-1.8-1.5.7.7,0,0,0-.9.2c-.3.3-2.3,2.7-3.2,3.9a20.7,20.7,0,0,1,.8-2.1,1.3,1.3,0,0,0-.3-1.3,7.4,7.4,0,0,0-2.6-1.2.9.9,0,0,0-1,0c-1.8,1-7.1,4.4-9.7,6.3-.8.6-.7.9-.1,1.3a10.4,10.4,0,0,0,2.5.8c.6.2,1,.2,2-.7a60.8,60.8,0,0,1,5.1-3.8c-.8,1.7-2.1,5.8-2.6,7.2s-1.9,6.1-2.1,6.7-.1,1.3.3,1.5a21.4,21.4,0,0,0,2.2,1c.5.2.9.1,1.1-.8s1.5-6.5,1.6-6.8c1.1-2.6,3.9-6.9,5.3-8a109.7,109.7,0,0,0-3.4,13.7c-.1.6-.1.9.2,1.1a7.9,7.9,0,0,0,2,1.2c.9.4,1-.3,1-.9s.9-6.1,2.1-8.6a25.4,25.4,0,0,1,3.7-5.5,136.8,136.8,0,0,0-1.3,14.5,2.7,2.7,0,0,0,.5,1.8,8.9,8.9,0,0,0,3.6,2.3c.7.1.6-.3.2-1.1a16.3,16.3,0,0,1-.5-3.4,50,50,0,0,1,1.1-15.2.9.9,0,0,0-.2-.8,17.1,17.1,0,0,0-1.8-2Z" transform="translate(0)"/><path class="a15ac171-f4d5-4c66-8207-63f559daaed9" d="M95.1,16.7,94,15.9a1.6,1.6,0,0,0-2,0,10.4,10.4,0,0,0-2,1.7,4.5,4.5,0,0,1,.2-.8c0-.3.3-.8-.2-1.4a2.5,2.5,0,0,0-1.4-1,.6.6,0,0,0-.8.4,60.7,60.7,0,0,0-2.7,8.8,3.6,3.6,0,0,0,.5,2.6,4.1,4.1,0,0,0,1.1,1.2c.6.5.9.1,1-.4a19.6,19.6,0,0,1,.9-4.5,8.7,8.7,0,0,1,6.2-5.1c.6-.1.5-.5.3-.7Z" transform="translate(0)"/><path class="a15ac171-f4d5-4c66-8207-63f559daaed9" d="M97.5,13c2.7,1.1,9.6-.6,8.9-5.4s-8.8.4-8.2,3.3,5.4-2.2,5.4-2.2a7.7,7.7,0,0,1-2,1.1c-1.7.4-.7-.9,1.4-1.8s2.2,0,1.6,1.1-2.6,2.8-5.1,3.3-2.9-2.6-.7-4.7c4.3-4.2,11.1-1.9,11.1-1.9-1.1-1.8-6-3.4-9.4-1.4s-5,7.8-3,8.6Z" transform="translate(0)"/><path class="a15ac171-f4d5-4c66-8207-63f559daaed9" d="M120.8,12a1.8,1.8,0,0,0-2.1.4,12.7,12.7,0,0,0-5.1,8.2,1.7,1.7,0,0,0,.2,1.3,4.7,4.7,0,0,0,3,2.4,3.4,3.4,0,0,0,2.4-.4,6.5,6.5,0,0,0,3.1-3.8c.2-.6.2-.9-.5-.2a11.1,11.1,0,0,1-3.7,2.3c-1.2.2-1.5.1-1.6-.9,2.9-1.1,6.2-3.2,7-6a1.8,1.8,0,0,0-.4-1.7,6.7,6.7,0,0,0-2.3-1.6Zm.6,2.8c-.3,1.4-2.6,3.2-4.4,4.1a15.7,15.7,0,0,1,3.4-4.5c.3-.2,1.1-.6,1,.4Z" transform="translate(0)"/><path class="a15ac171-f4d5-4c66-8207-63f559daaed9" d="M143.4,11.8l-1.2-1.1q-.6-.4-.9,0l-.4,1.1a4.5,4.5,0,0,0-1.4-1c-.7-.3-1-.3-1.4-.1-2,.9-4.9,4.3-5.5,7.5a1.7,1.7,0,0,0,.3,1.4,11.7,11.7,0,0,0,1.9,2,1.6,1.6,0,0,0,1.5.1,8.9,8.9,0,0,0,2-1.7,3.7,3.7,0,0,0,1.8,3.6c.9.4,1.1-.3,1.1-.9s1.4-7.5,2-9.3.5-1.1.2-1.6Zm-4.8,4.8c-1.3,1.8-2.7,3-3.1,2.8s.2-2.1,1.4-3.9,2.8-2.7,3.2-2.5-.3,1.8-1.5,3.6Z" transform="translate(0)"/><path class="a15ac171-f4d5-4c66-8207-63f559daaed9" d="M132.4,6.1a4.8,4.8,0,0,0-1.1-1.5c-.5-.4-.9-.3-1.1.3l-5.1,16c-.2.9-.1,1.2.4,1.7l2,1.4c.7.4.8,0,.8-.7.1-2.3,2.7-10.9,4.1-15.5.3-.9.3-1.2,0-1.7Z" transform="translate(0)"/><g class="a43176dc-1f73-446d-86bc-cb4e418b4e16"><path class="ef93d21f-5a19-4783-bc4b-90ee534cb930" d="M131.7,81.4h-.1c-1.9.3-8.4,5-13.5,22s-3.5,23.5-3,25.5a5.1,5.1,0,0,0,1.4,2.6h.1c1.5-.3,4.5-5.7,7.2-12.5a152.3,152.3,0,0,0,9.5-35.6c-.3-.8-.9-2-1.6-2" transform="translate(0)"/><path class="ef93d21f-5a19-4783-bc4b-90ee534cb930" d="M34,69.2c-2.9,2.7-6,18.5-7.6,28.8-1.9,12.7-1.2,25.4-.4,38.3,3.7-1.9,7-13.1,8.8-29.1,1.5-12.3,3.8-26.4.2-38-.1-.3-.5-.5-1,0" transform="translate(0)"/><path class="ef93d21f-5a19-4783-bc4b-90ee534cb930" d="M328.4,87.8a24.6,24.6,0,0,0-7.2-7.5,21.2,21.2,0,0,0-11.6-3.6,21.6,21.6,0,0,0-13.3,4.7,1.7,1.7,0,0,1-2.3-.3.8.8,0,0,1-.2-.5,27.2,27.2,0,0,0-8.7-13.2,22,22,0,0,0-5.1-3.2,17.3,17.3,0,0,0-14.6,0,24.1,24.1,0,0,0-6.4,4.1,1.5,1.5,0,0,1-2.2-.2l-.3-.5c-.1-.1-.1-.3-.2-.5-2.2-5.8-7.1-9.5-12.6-9.5a10.9,10.9,0,0,0-2.6.3,25,25,0,0,0-13.1,8,1.6,1.6,0,0,1-2.2.1l-.3-.4a18.1,18.1,0,0,0-6.4-6.5,4.1,4.1,0,0,0-1.1-.7,40.1,40.1,0,0,0,2.6-6.5,27.6,27.6,0,0,0-.5-16.6,11.9,11.9,0,0,0-8.2-7.8h-.8c-5.1-.6-9.6,2.8-12.3,9-.1-.5-.3-.9-.4-1.3a11.8,11.8,0,0,0-8.2-7.7l-.8-.2c-5.7-.7-10.7,3.7-13.2,11.4a10.8,10.8,0,0,0-.5,2.1,11.8,11.8,0,0,0-.7-2,11.9,11.9,0,0,0-8.2-7.8l-.8-.2c-5.7-.6-10.7,3.7-13.1,11.4a33,33,0,0,0-.5,16.8,14.3,14.3,0,0,0,.9,2.7,1.4,1.4,0,0,1-.5,1.8l-1.1,1.1c-2.4,3-2,11-2,11a22,22,0,0,0-7.3-8.7,13.4,13.4,0,0,0-10.8-2.1c-10.2,2.5-16.7,10.2-21.5,18.1a1.5,1.5,0,0,1-2.2.5,1.3,1.3,0,0,1-.7-.9,20.1,20.1,0,0,0-2.3-5.2,10.5,10.5,0,0,0-8.6-4.9,13,13,0,0,0-8.8,4.1A48.2,48.2,0,0,0,77.1,92.9a.8.8,0,0,1-1.1.6h-.3a22.9,22.9,0,0,0-6.3-1.9c-.8-.2-.7-.6-.6-1.5a38.1,38.1,0,0,0,.4-5.9c0-6.3-2-12.3-5.1-15.6a8.9,8.9,0,0,0-6.6-3,8.6,8.6,0,0,0-4.7,1.4l-.7.4-.2.2a42.1,42.1,0,0,0-6.4-12.9,12.1,12.1,0,0,0-9.7-5.2,13.3,13.3,0,0,0-9,3.9,23.5,23.5,0,0,0-3,3.3c-5.9,8.2-9,17.9-10.6,26.4a1.5,1.5,0,0,1-1.8,1.2h-.1L9,83.9a7.7,7.7,0,0,0-6.3,2.5C-.9,90.2,0,95.3.4,98.3c.1.3.1.6.2,1,2.7,19,12.2,82.6,18.9,102.2,3.5,10.2,10.4,11.2,13.2,11.2a9.9,9.9,0,0,0,5.3-1.3l.3-.3A8.5,8.5,0,0,0,41,199.9l-.5-.8v-.2c-.5-1.1-1.8-5.6-4.1-23.8-.7-5.7-1.8-14.6-2.6-21.5a1.7,1.7,0,0,1,.9-1.7c6.4-2.7,9.7-11.3,11.4-15.2.1,1.2,1.2,23.2,1.8,26.3,1.2,5.8,4,10.6,7.5,13a8.6,8.6,0,0,0,4.7,1.6,9.5,9.5,0,0,0,5.5-2.2,9.1,9.1,0,0,0,2.8-5.9,1.7,1.7,0,0,1,1.8-1.3h.5a8.4,8.4,0,0,0,4.1,1.1H76c3.1-.5,5.7-3.5,6.5-7.7h0c.2-1.4.5-2.7.6-4.1.6-4.7.9-8,1.2-10.9a17.9,17.9,0,0,0,2.7,4.4,12.4,12.4,0,0,0,8.9,4.4,10.9,10.9,0,0,0,2.6-.3,14.3,14.3,0,0,0,.4,8.9c3,6.5,10.9,9.7,17.9,9.7a23.3,23.3,0,0,0,5.3-.6c4.7-1,13.1-4.3,18.3-15.9a107.6,107.6,0,0,0,5.5-16.6,1.5,1.5,0,0,1,1.9-1.2h.2a11.5,11.5,0,0,0,4.1.8h.7a14.2,14.2,0,0,0,5.7-1.5A35.4,35.4,0,0,0,170.9,127a1.7,1.7,0,0,1,2.3-.4l.3.4,1.5,1.7c1.1,1.1,4.4,4.3,8.5,4.3a7,7,0,0,0,4.2-1.3,1.6,1.6,0,0,1,2,.2,8.3,8.3,0,0,0,5.1,2.3h.4a7.3,7.3,0,0,0,5.7-2.7,12.3,12.3,0,0,0,1.6-3.5c.7-1.6,1.1-2.5,2.2-.7l.6.9a15.2,15.2,0,0,0,5.8,6,6.6,6.6,0,0,0,2.7.6,7.8,7.8,0,0,0,6.9-5.2c.2-.5.7-1.5,1.4-3.6l.6-2a1.5,1.5,0,0,1,2-1,1.3,1.3,0,0,1,1,1,27.2,27.2,0,0,0,1.1,2.5c1.6,3.4,5,7.8,9.2,9l2.1.3a7.1,7.1,0,0,0,5-2.1,12.1,12.1,0,0,0,2-3c.4-1.1,1.1-5.9,2.6-2.1A20.9,20.9,0,0,0,259,139.9l3,.8a18.8,18.8,0,0,0,8.5-.2,30,30,0,0,0,5.6-2.3,1.6,1.6,0,0,1,2.1.6h0a23.5,23.5,0,0,0,13.2,12.5,20.5,20.5,0,0,0,8.4,1.8,19,19,0,0,0,17.3-11.6c4-10.5,1.5-18.6-1.2-24.4-.4-.9-.9-1.8-1.4-2.7l-.9-1.8a23.6,23.6,0,0,1-2.6-9.3,1.6,1.6,0,0,1,1.5-1.6,2.1,2.1,0,0,1,1.4.7,19.5,19.5,0,0,0,3.8,3.2,10.6,10.6,0,0,0,4.3,1.2,9.1,9.1,0,0,0,7.7-4.6c3-4.7,1.2-10.8-1.3-14.5M55.4,73l.3-.2a3.2,3.2,0,0,1,4.3.6c1.9,2,3.2,6.3,3.2,10.6s-.6,12-4.1,14.1a3.5,3.5,0,0,1-1.4.6,4.1,4.1,0,0,1-3.6-2.3,23.3,23.3,0,0,1-2.9-11.9c.1-5.3,1.7-9.7,4.2-11.5M48,102.7c-1.4,14.3-4.3,29.9-13.3,40.9a9.1,9.1,0,0,1-7.8,3.2c.7,6.2,2.5,21.1,3.6,29.3.7,6.2,2.8,22.7,4.8,26.4l.4.8a1.6,1.6,0,0,1-.5,2.1l-.4.3c-.2.1-6.6,2.5-9.7-6.6-5.7-16.8-14-69.6-18.6-100.9-.4-2.7-1-5.4.4-6.9a1.9,1.9,0,0,1,1.8-.6,9.8,9.8,0,0,1,8.9,6.7c.1.2.1-2.2.4-5.7,1.2-10.9,4.3-22.4,10.5-30.9a15.1,15.1,0,0,1,2.1-2.3c4.6-4.2,8.5-2.1,10.3.4,8.6,11.5,8.6,29.2,7.1,43.8m15.2,18.7c-.5,12.2-.7,30.1-.6,34,.2,7.2.4,11.3-.3,13.5a3.6,3.6,0,0,1-1.1,1.6,2.4,2.4,0,0,1-2.7-.2c-1.6-1.1-3.7-4-4.7-8.7s-1.7-32.3-3.3-51.9c-.2-3.3.8-4.5,1.3-4.9a3.3,3.3,0,0,1,1.4-.4c.1,0,7.3-.2,8.7,2.9s1.6,7.5,1.3,14.1M203.7,40.9c1.5-4.6,4.1-7.2,6.9-6.9h.3a5.5,5.5,0,0,1,3.8,3.9,19.5,19.5,0,0,1,.3,11.7c-1.2,3.8-3.6,10.1-7.3,9.3a3.5,3.5,0,0,1-1.5-.7,7.9,7.9,0,0,1-2.8-4.7,27.3,27.3,0,0,1,.3-12.7M182,40.8c1.5-4.6,4.1-7.2,6.8-6.9h.4a5.6,5.6,0,0,1,3.8,3.8,19.5,19.5,0,0,1,.3,11.7c-1.2,3.8-3.6,10.1-7.4,9.3a3.5,3.5,0,0,1-1.4-.6,7.7,7.7,0,0,1-2.8-4.7,26,26,0,0,1,.3-12.7m-23.4,3.5c1.5-4.6,4.1-7.2,6.8-6.9h.4a5.7,5.7,0,0,1,3.8,3.9,19.4,19.4,0,0,1,.3,11.7c-1.2,3.8-3.6,10-7.4,9.2a3.5,3.5,0,0,1-1.4-.6,7.7,7.7,0,0,1-2.8-4.7,26,26,0,0,1,.3-12.7m-57.4,62.2c-.1,1.3-.3,2.5-.5,3.8-1.3,9.7-2.5,19.4-2.1,28.7.2,3.1,1.5,8.4-1.4,9.4s-4.6-.7-5.8-2.2-3.1-6.3-3.1-11.8c.3-8.6,1-17.2,2.1-25.7a102.6,102.6,0,0,0,1.2-13.5c0-2.1-2.2,1.5-3.2,4.6a312.1,312.1,0,0,0-8,31.3c-2,10.2-1.7,13.3-3.2,25.4-.3,2.3-.5,3.4-.6,3.8s-1,2.3-1.4,2.4a4.8,4.8,0,0,1-3.4-1.4c-1.5-1.5-4-3.1-4.8-6.6s-.3-6.3,0-11.7c.8-12.6.7-18-.6-35.5-.2-2.7-2.9-9,1.6-9.1s6.9,3.3,7.7,8.2a90.4,90.4,0,0,1,1.2,10.6c2.1-12.4,6.3-27.7,14.6-35.8,3.3-3.2,6.7-3,8.6-.1,3.2,4.7,2.4,16.3,1.2,25.2m41.9,13.7a113.5,113.5,0,0,1-8.1,33.9c-3.7,8.4-9.7,11.4-14,12.3-7.7,1.6-15.2-1.5-16.7-5.2a6.2,6.2,0,0,1-.1-3.8c.6-2.7,1.7-3.5,2.6-3.7s3.3,1.8,4.8,3.3,3.8,3.9,9.3-.7,7.2-10.2,8.8-18c1-5,1.9-12.8,2.5-18.8-3.7,9.5-9.3,20.5-17.8,23.6-2.5.9-5.1-.4-6.8-1.5s-4.7-5.5-5-10a67.7,67.7,0,0,1,7.6-36.2c5.4-10.6,11.5-21.4,22.6-24.2a8.4,8.4,0,0,1,6.4,1.3,12.6,12.6,0,0,1,5.3,8.5,2.8,2.8,0,0,1,3.1,1.4c1,1.9.5,4.5.1,6.3a257.1,257.1,0,0,0-4.6,31.5m46.4-37.9c-1.2,7.1-4.9,33-4.5,38.5.1,1.7,1.2,4.9-1,5.4s-3.7-1.3-4.9-2.6a13.9,13.9,0,0,1-3.8-9.6,103.6,103.6,0,0,1,.3-11.1c-4,11.3-9.7,24.4-19.6,29.6a8.6,8.6,0,0,1-3.5.9,5,5,0,0,1-5.2-3.2c-2.7-5.5,0-17,2.3-25.8s5.8-22.8,6.2-29.7c.2-2.2-1.2-6.6,2.1-6.2a8.4,8.4,0,0,1,5.7,4.2c1.8,3.1,2.3,7.5,1.6,13-1,7.1-8.5,33.2-7.8,34.7,3.1-2.4,10.6-19.5,14.4-29.8,3-7.9,6.5-17.5,8.4-23.4l1.1-3.4c.6-1.4,1.4-1.6,1.8-1.6s2.5,2.3,3.3,3.4a18,18,0,0,1,3.9,8.8c.2,2.3.1,2.9-.8,7.9m10.2,33.3c-1.2,6.3-2,9.8-3.1,11.2a1.7,1.7,0,0,1-1.4.7,3.8,3.8,0,0,1-2.6-2.1,20.9,20.9,0,0,1-2.8-10.9c.1-5.2,1.9-15.2,3.4-23.2,1.9-10.2,4.3-23.9,4.4-25,.2-3.2,1.6-3.4,2.2-3.4a3.9,3.9,0,0,1,1.5.6s7.2,4.9,7.8,8.7-.5,7.2-2.2,13.7c-3.7,14.7-6.3,24.7-7.2,29.7M247,96.5c-2.8,8-5.5,16.1-6.5,24.8-.3,3,.2,8.5-2.9,7.7s-4.4-3.6-5.4-5.7a21.3,21.3,0,0,1-1.2-12.7c1-6.5,3.8-14.9,6.1-22a93.5,93.5,0,0,0,3.2-11.5c.3-2-2.4-.1-3.9,2.1-4.2,5.9-10.2,17.8-12.7,23.4-3.6,8-3.8,11-7.2,21a28.3,28.3,0,0,1-1.1,3.1c-.6,1.3-1.4,1.5-1.8,1.3a8.5,8.5,0,0,1-3.1-3.4c-1.3-2.3-3.6-5.4-3.8-9s.6-6,1.8-10.7c2.7-11,3.5-15.9,4.9-32.6.2-2.6-1.5-10.1,3-7.3a14.4,14.4,0,0,1,6.4,12.3c0,3.4-.2,7.1-.5,10.5,4-10,10.6-21.2,20-23.3,3.8-.8,7.2,1.5,8.6,5.3,2.4,6.3-.2,16.3-2.8,23.6a28.3,28.3,0,0,1-1.1,3.1m22.2,37.4a12.2,12.2,0,0,1-6,.2l-2.1-.6c-6.5-2.6-11-10.7-11.5-21.5-.8-15.5,5-35.4,18.2-41.6a12.1,12.1,0,0,1,10.2.1,21.4,21.4,0,0,1,3.8,2.3c7.7,6.3,8.3,18.5,8.4,22.4.6,15.7-6.9,34.8-21,38.7M325,98.4a3.3,3.3,0,0,1-4.5,1.3,2.4,2.4,0,0,1-.9-.8,13.6,13.6,0,0,0-5-3.6,7.6,7.6,0,0,0-7.2,1.7c-2.6,2.3-3.7,8.6,1.1,18.8.7,1.5,1.5,3,2.2,4.4,2.9,6.4,3.7,11.9,1.1,18.8-1.2,3.1-7.6,10.5-18,6.1a17.7,17.7,0,0,1-11.3-12.7c-.5-1.9-.1-4.8,2-4.8s3.4,1.9,4.3,3.8c2.8,5.8,10.1,7.3,13.3,2.7,2.1-3.1.2-9.3-3.7-16a38.3,38.3,0,0,1-4.6-10.8c-1.4-6.8-.7-11.8,2.1-16,4.7-7.2,14.4-10.5,22.4-5.2a20.9,20.9,0,0,1,5.5,5.6c1.1,1.8,2.3,4.9,1.2,6.7" transform="translate(0)"/><path class="ef93d21f-5a19-4783-bc4b-90ee534cb930" d="M277.3,80.7c-3-1-8.3,4.3-12.4,16.1s-4.4,25.1-1.7,27.9a2.1,2.1,0,0,0,1,.6c2.9.9,8.3-4.5,12.3-16.1s4.5-24.8,1.7-27.8a2.2,2.2,0,0,0-.9-.7" transform="translate(0)"/></g></g></g></svg>