<?xml version="1.0" encoding="UTF-8"?><svg id="uuid-56f5e9a7-1962-4e8a-a2b6-0e0b1d3e6a8b" xmlns="http://www.w3.org/2000/svg" viewBox="0 0 169.1 38.4"><defs><style>.uuid-ccd3e0f7-3ef4-4c9c-9bb2-63c9f566d45e{fill:#fff;}</style></defs><g id="uuid-1b1494b8-dc23-4474-a334-84edbb2cba25"><g id="uuid-3541ce92-56b5-4a1d-9091-baa0858647be"><polygon class="uuid-ccd3e0f7-3ef4-4c9c-9bb2-63c9f566d45e" points="12.3 10.8 12.3 0 0 0 0 32.3 6.2 38.4 23.1 38.4 23.1 26.1 12.3 26.1 12.3 23.1 23.1 23.1 23.1 10.8 12.3 10.8"/><polygon class="uuid-ccd3e0f7-3ef4-4c9c-9bb2-63c9f566d45e" points="56.9 10.8 56.9 26.1 53.8 26.1 53.8 10.8 41.5 10.8 41.5 26.1 38.4 26.1 38.4 10.8 26.1 10.8 26.1 32.3 32.3 38.4 69.2 38.4 69.2 10.8 56.9 10.8"/><rect class="uuid-ccd3e0f7-3ef4-4c9c-9bb2-63c9f566d45e" x="72.3" y="10.8" width="12.3" height="27.7"/><rect class="uuid-ccd3e0f7-3ef4-4c9c-9bb2-63c9f566d45e" x="72.3" y="0" width="12.3" height="7.7"/><polygon class="uuid-ccd3e0f7-3ef4-4c9c-9bb2-63c9f566d45e" points="119.9 10.8 113.8 16.9 113.8 32.3 119.9 38.4 138.4 38.4 138.4 26.1 126.1 26.1 126.1 23.1 138.4 23.1 138.4 10.8 119.9 10.8"/><polygon class="uuid-ccd3e0f7-3ef4-4c9c-9bb2-63c9f566d45e" points="163 10.8 153.8 10.8 153.8 0 141.5 0 141.5 38.4 153.7 38.4 153.7 23.1 156.8 23.1 156.8 38.4 169.1 38.4 169.1 16.9 163 10.8"/><polygon class="uuid-ccd3e0f7-3ef4-4c9c-9bb2-63c9f566d45e" points="99.9 10.8 99.9 0 87.6 0 87.6 32.3 93.8 38.4 110.7 38.4 110.7 26.1 99.9 26.1 99.9 23.1 110.7 23.1 110.7 10.8 99.9 10.8"/></g></g></svg>