<?xml version="1.0" encoding="UTF-8"?><svg id="uuid-25d3e44e-1d72-4c32-8a8c-4bd2609ea0b3" xmlns="http://www.w3.org/2000/svg" viewBox="0 0 263.1 97.5"><defs><style>.uuid-ef853fe0-1efd-4722-9258-0bae57e3d3ab{fill:#fff;}</style></defs><g id="uuid-d4834c33-6baf-4467-9ad5-591dae7cbb8c"><g><path class="uuid-ef853fe0-1efd-4722-9258-0bae57e3d3ab" d="m165.9,46.1c-4.6,14-17.4,24.9-33.7,24.9s-28.8-10.8-33.5-24.6c4.8,12.9,18,22.2,33.5,22.2s28.9-9.4,33.6-22.5m-67.2-21.4C103.3,10.8,114.1,0,132.3,0s29.2,10.9,33.7,25.1c-4.7-13.2-18-22.7-33.7-22.7s-28.8,9.4-33.6,22.4"/><path class="uuid-ef853fe0-1efd-4722-9258-0bae57e3d3ab" d="m133,21.3c.2-.3.9-.1,1.3,0,.6,0,.5.9,1.3.7.9-.2.9.8,2.1.8,1.2,0-.2.4-.2.4,0,0-.8-.4-1.3-.1-.3.1,0,0-.3-.4-.7-.5-.6.1-1.7-.8-.8-.7-1.6,0-1.2-.4m6.2,24.8c.5.2,1.1.7,1.4,1.4.7,1.7-.3.3-.3,2.9s-.7,2-.7,2c0,0-.1,2.8-1.6,4.6-1,.9-.2,1.7-.2,1.7,0,0-.3.2-.8,2.2-.1.7.7,1.7,1.5,1.4.6-.2-1.4-.4.7-1.3.8-.3.1-1,.1-1,0,0,1.4-.1,2.1-2.1,1.4.2.8-.6,3.6-1.2.7-.2.9-.4.8-1.1,0-.7.9.1,3.7-2.7,2.2-2.2,1.4-2.7,2.9-3.5,1.6-.8,1.7,0,2.3-.6,1.2-1.6.8-1.5,1.3-2.4l.4-.5h-17.1Zm-15.3-23c-.5-1.1-.4-2.9.5-4.5.6-1,2.2-1.5,3.6-.9,1.6-1.2,2,0,3.4-.5,1.8-.8.8,2.1,2.6,2.8.7-1.9-1.7-3.4-.2-4.3,1.1-.6,1.9-1.1,2.3-1.9.6-1.2.9-2.1,1.4-2.3,1.1-.4.9-1.4.9-1.4,0,0,1.2.3,2.1-.5-.7-.4-1.7-.7-1.5-1.4.3-.9,2.7.9,3.4-.5-1.4-.6-2.9-1.9-3.8-2.3-.6.6-1,.4-1.7-.2-1.3-1-1.4,0-2.2-.8-.7,1.3.3,1.2.6,1.5.8.9-.9-.8-.7,1.5,0,.6-.9.7-1.5-.6-.3-.7-3.1-.5-3.5-1.2.4-.8,3.6-3.4,8.7-2.8-7.3-2.8-17.1.3-17.2,1.3-1,.6-.6,1.3-1.1,1.5-.8.3-1.8,2.8-1.8,2.8,0,0,.5.3-1.1,2.2-1.4,1.5-1.8,3.8-1.8,3.8,0,0,.9,1.6.7,3.5-.1,1.4-.2.4.4,1.4.4.6.8,2.7,1,1.9.5-1.6-.8-3-.6-4.6,0,.2.5-.6.5.1,0,1.9,2.4,5.6,2.4,5.6,0,0-.9.9,0,.9h4.1Z"/><path class="uuid-ef853fe0-1efd-4722-9258-0bae57e3d3ab" d="m71.7,28.2h-5.5l.8,1v7.2c0,1.6-1.1,2.3-2.7,2.3s-2.7-.7-2.7-2.3v-7.2l.8-1h-5.5l.8,1v7.3c0,3.6,2,4.9,6.6,4.9s6.6-1.4,6.6-4.9v-7.3l.8-1Z"/><polygon class="uuid-ef853fe0-1efd-4722-9258-0bae57e3d3ab" points="90.9 28.2 86.2 28.2 87 29.2 87 35.7 80.3 28.2 76.1 28.2 77 29.2 77 40.2 76.1 41.2 80.8 41.2 80 40.2 80 33.6 87.1 41.2 90 41.2 90 29.2 90.9 28.2"/><polygon class="uuid-ef853fe0-1efd-4722-9258-0bae57e3d3ab" points="101.6 41.2 100.8 40.2 100.8 29.2 101.6 28.2 96 28.2 96.9 29.2 96.9 40.2 96 41.2 101.6 41.2"/><polygon class="uuid-ef853fe0-1efd-4722-9258-0bae57e3d3ab" points="120 28.2 115.3 28.2 116.1 29.2 112.8 36.3 109.6 29.2 110.4 28.2 104.9 28.2 111.1 41.2 113.8 41.2 120 28.2"/><polygon class="uuid-ef853fe0-1efd-4722-9258-0bae57e3d3ab" points="135.6 41.2 135.6 37.7 134.6 38.5 127.9 38.5 127.9 36 132.2 36 133.1 36.8 133.1 32.6 132.2 33.4 127.9 33.4 127.9 30.9 134.6 30.9 135.6 31.7 135.6 28.2 123.2 28.2 124.1 29.2 124.1 40.2 123.2 41.2 135.6 41.2"/><path class="uuid-ef853fe0-1efd-4722-9258-0bae57e3d3ab" d="m154.4,41.2l-3.6-5.1c1.7-.7,3-2,3-3.9s-1.3-3.9-5.1-3.9h-8.2l.8,1v11l-.8,1h5.5l-.8-1v-3.7h1.6l2.5,3.7-.8,1h5.8Zm-4.5-8.7c0,.9-.9,1.7-2.2,1.7h-2.5v-3.2h3c.9,0,1.7.4,1.7,1.5"/><path class="uuid-ef853fe0-1efd-4722-9258-0bae57e3d3ab" d="m171,37.4c0-2.1-1.7-3.2-4.1-4-1.6-.5-3.8-.8-3.8-1.9s.6-.9,1.7-.9,3.7.6,5.5,1.4v-4.3l-1,1c-1.1-.4-3-.9-4.3-.9-4.5,0-5.9,1.9-5.9,3.7s1.6,3.5,4.2,4.3c1.9.6,3.6.7,3.6,1.8s-1.1,1-1.6,1c-1.4,0-3.9-.5-6.1-1.9v4.8l1-1.1c1,.4,3.3,1,5.2,1,3.9,0,5.6-1.7,5.6-4.1"/><path class="uuid-ef853fe0-1efd-4722-9258-0bae57e3d3ab" d="m190.7,41.2l-6.5-12.9h-4.4l.5,1-5.8,12h4.8l-.8-1,.6-1.4h6.3l.6,1.4-.8,1h5.6Zm-6.3-4.7h-4.4l2.2-4.6,2.2,4.6Z"/><polygon class="uuid-ef853fe0-1efd-4722-9258-0bae57e3d3ab" points="206.2 41.2 206.2 37.7 205.2 38.5 198.9 38.5 198.9 29.2 199.7 28.2 194.3 28.2 195.1 29.2 195.1 40.2 194.3 41.2 206.2 41.2"/><path class="uuid-ef853fe0-1efd-4722-9258-0bae57e3d3ab" d="m202.7,30c0,.9.7,1.6,1.7,1.6s1.7-.7,1.7-1.6-.7-1.6-1.7-1.6-1.7.7-1.7,1.6m-.2,0c0-1,.8-1.8,1.8-1.8s1.8.8,1.8,1.8-.8,1.8-1.8,1.8-1.8-.8-1.8-1.8"/><path class="uuid-ef853fe0-1efd-4722-9258-0bae57e3d3ab" d="m205.1,29.3c-.2-.2-.4-.2-.6-.2-.5,0-.9.4-.9.9s.4.9.9.9.5,0,.7-.2v-.2c-.2.2-.4.3-.7.3-.4,0-.7-.4-.7-.8s.3-.8.8-.8.5.1.6.3v-.2h0Z"/><path class="uuid-ef853fe0-1efd-4722-9258-0bae57e3d3ab" d="m10.2,88.4l-.6.7v4.9c0,.6,0,1.1-.3,1.6-.2.4-.5.8-.8,1-.4.3-.8.5-1.4.6-.6.1-1.3.2-2.1.2s-1.5,0-2-.2c-.6-.1-1-.3-1.4-.6-.4-.3-.6-.6-.8-1-.2-.4-.3-.9-.3-1.5v-4.9l-.6-.7h3.8l-.6.7v4.8c0,.5.2.9.5,1.2.3.3.8.4,1.4.4s1-.1,1.4-.4c.3-.3.5-.6.5-1.2v-4.8l-.6-.7h3.8Z"/><polygon class="uuid-ef853fe0-1efd-4722-9258-0bae57e3d3ab" points="24.9 88.4 24.3 89.1 24.3 97.2 22.2 97.2 17.3 92 17.3 96.5 17.9 97.2 14.7 97.2 15.3 96.5 15.3 89.1 14.7 88.4 17.6 88.4 22.2 93.5 22.2 89.1 21.6 88.4 24.9 88.4"/><polygon class="uuid-ef853fe0-1efd-4722-9258-0bae57e3d3ab" points="33.7 97.2 29.8 97.2 30.4 96.5 30.4 89.1 29.8 88.4 33.7 88.4 33.1 89.1 33.1 96.5 33.7 97.2"/><polygon class="uuid-ef853fe0-1efd-4722-9258-0bae57e3d3ab" points="47.8 88.4 43.5 97.2 41.6 97.2 37.4 88.4 41.2 88.4 40.6 89.1 42.8 93.9 45.1 89.1 44.5 88.4 47.8 88.4"/><polygon class="uuid-ef853fe0-1efd-4722-9258-0bae57e3d3ab" points="60 97.2 51.4 97.2 52 96.5 52 89.1 51.4 88.4 60 88.4 60 90.8 59.3 90.3 54.7 90.3 54.7 91.9 57.6 91.9 58.3 91.4 58.3 94.2 57.6 93.7 54.7 93.7 54.7 95.4 59.3 95.4 60 94.8 60 97.2"/><path class="uuid-ef853fe0-1efd-4722-9258-0bae57e3d3ab" d="m74.4,97.2h-4l.6-.7-1.7-2.5h-1.1v2.5l.6.7h-3.8l.6-.7v-7.4l-.6-.7h5.7c1.2,0,2.1.2,2.7.7.6.5.8,1.1.8,1.9s-.2,1.1-.6,1.6c-.4.5-.9.8-1.5,1.1l2.5,3.5Zm-3.1-5.9c0-.2,0-.4-.2-.6-.1-.1-.3-.3-.4-.3-.2,0-.4-.1-.6-.1h-2v2.2h1.7c.4,0,.8-.1,1.1-.3.3-.2.4-.5.4-.8"/><path class="uuid-ef853fe0-1efd-4722-9258-0bae57e3d3ab" d="m87.2,94.6c0,.4,0,.8-.2,1.1-.2.3-.4.6-.7.9-.3.2-.7.4-1.2.6-.5.1-1.1.2-1.7.2s-.8,0-1.3-.1c-.5,0-.9-.2-1.3-.3-.4-.1-.8-.2-1-.3l-.7.8v-3.2c.7.4,1.4.8,2.2,1,.8.2,1.4.3,2,.3s.5,0,.8-.1c.2,0,.3-.3.3-.6s-.1-.4-.3-.5c-.2-.1-.6-.2-1.1-.4-.5-.1-.9-.2-1.1-.3-1-.3-1.7-.7-2.2-1.1-.5-.4-.7-1-.7-1.8s.1-.8.4-1.2c.3-.4.7-.7,1.3-.9.6-.2,1.4-.4,2.4-.4s.5,0,.7,0,.5,0,.8.1c.3,0,.6.1.8.2.2,0,.4.1.6.2l.7-.7v2.9c-.4-.2-.9-.4-1.3-.5-.5-.1-.9-.3-1.4-.3-.4,0-.8-.1-1.1-.1s-.6,0-.8.2c-.2.1-.3.2-.3.4s0,.3.2.4c.2.1.4.2.6.3.2,0,.6.2.9.3.4.1.7.2.9.2.9.3,1.6.6,2.1,1.1.5.4.7,1,.7,1.6"/><path class="uuid-ef853fe0-1efd-4722-9258-0bae57e3d3ab" d="m102.2,97.2h-3.8l.6-.7-.4-.9h-4.3l-.4.9.6.7h-3.3l4-8.1-.3-.7h3.1l4.5,8.7Zm-4.4-3.2l-1.5-3.1-1.5,3.1h3Z"/><polygon class="uuid-ef853fe0-1efd-4722-9258-0bae57e3d3ab" points="114.3 97.2 106.1 97.2 106.6 96.5 106.6 89.1 106.1 88.4 109.8 88.4 109.3 89.1 109.3 95.4 113.6 95.4 114.3 94.8 114.3 97.2"/><polygon class="uuid-ef853fe0-1efd-4722-9258-0bae57e3d3ab" points="137 97.2 133.3 97.2 133.9 96.5 133.9 92.3 131.5 97.2 130.2 97.2 127.5 92.3 127.5 96.5 128.1 97.2 124.9 97.2 125.5 96.5 125.5 89.1 124.9 88.4 128.1 88.4 131.1 93.8 133.8 88.4 137 88.4 136.5 89.1 136.5 96.5 137 97.2"/><path class="uuid-ef853fe0-1efd-4722-9258-0bae57e3d3ab" d="m151.7,88.4l-.6.7v4.9c0,.6,0,1.1-.3,1.6-.2.4-.5.8-.8,1-.4.3-.8.5-1.4.6-.6.1-1.3.2-2.1.2s-1.5,0-2-.2c-.6-.1-1-.3-1.4-.6-.4-.3-.6-.6-.8-1-.2-.4-.3-.9-.3-1.5v-4.9l-.6-.7h3.8l-.6.7v4.8c0,.5.2.9.5,1.2.3.3.8.4,1.4.4s1-.1,1.4-.4c.3-.3.5-.6.5-1.2v-4.8l-.6-.7h3.8Z"/><path class="uuid-ef853fe0-1efd-4722-9258-0bae57e3d3ab" d="m164.3,94.6c0,.4,0,.8-.2,1.1-.2.3-.4.6-.7.9-.3.2-.7.4-1.2.6-.5.1-1.1.2-1.7.2s-.8,0-1.3-.1c-.5,0-.9-.2-1.3-.3-.4-.1-.8-.2-1-.3l-.7.8v-3.2c.7.4,1.4.8,2.2,1,.8.2,1.4.3,2,.3s.5,0,.8-.1c.2,0,.3-.3.3-.6s-.1-.4-.3-.5c-.2-.1-.6-.2-1.1-.4-.5-.1-.9-.2-1.1-.3-1-.3-1.7-.7-2.2-1.1-.5-.4-.7-1-.7-1.8s.1-.8.4-1.2c.3-.4.7-.7,1.3-.9.6-.2,1.4-.4,2.4-.4s.5,0,.7,0c.3,0,.5,0,.8.1.3,0,.6.1.8.2.2,0,.4.1.6.2l.7-.7v2.9c-.4-.2-.9-.4-1.3-.5-.5-.1-.9-.3-1.4-.3-.4,0-.8-.1-1.1-.1s-.6,0-.8.2c-.2.1-.3.2-.3.4s0,.3.2.4c.2.1.4.2.6.3.2,0,.6.2.9.3.4.1.7.2.9.2.9.3,1.6.6,2.1,1.1.5.4.7,1,.7,1.6"/><polygon class="uuid-ef853fe0-1efd-4722-9258-0bae57e3d3ab" points="173 97.2 169.1 97.2 169.7 96.5 169.7 89.1 169.1 88.4 173 88.4 172.4 89.1 172.4 96.5 173 97.2"/><path class="uuid-ef853fe0-1efd-4722-9258-0bae57e3d3ab" d="m186.3,96.6c-.2,0-.4.2-.6.3-.3,0-.5.2-.9.3-.3,0-.7.1-1,.2-.4,0-.7,0-1,0-.7,0-1.4,0-2-.3-.6-.2-1.2-.4-1.7-.8-.5-.4-.9-.8-1.2-1.4-.3-.6-.4-1.3-.4-2s.1-1.2.4-1.8.6-1,1-1.5c.5-.4,1-.7,1.7-1,.7-.2,1.4-.3,2.3-.3s.7,0,1,0c.3,0,.7.1,1,.2.3,0,.6.1.8.2l.6-.6v2.9c-.3-.2-.7-.4-1-.5-.3-.1-.7-.2-1.1-.3-.4,0-.8-.1-1.2-.1-.9,0-1.6.2-2,.7-.4.5-.7,1.1-.7,1.9s.1,1,.3,1.4c.2.4.5.7,1,.9.4.2.9.3,1.4.3s1,0,1.4-.2c.4-.1.8-.2,1-.4.3-.1.5-.3.8-.5v2Z"/><path class="uuid-ef853fe0-1efd-4722-9258-0bae57e3d3ab" d="m204,93.5l-.6-.7h3.2v3.5c-.2.1-.4.2-.7.4-.3.1-.7.2-1,.3-.4.1-.8.2-1.2.2-.4,0-.8,0-1.2,0-1,0-1.8-.2-2.7-.5-.8-.3-1.5-.8-2-1.5-.5-.7-.7-1.5-.7-2.6s.3-1.9.8-2.6c.5-.7,1.2-1.2,2-1.5.8-.3,1.7-.5,2.6-.5s1.2,0,1.6.1c.4,0,.9.2,1.4.4l.7-.7v3c-.6-.3-1.2-.6-1.7-.7-.6-.2-1.2-.3-1.8-.3s-.8,0-1.1.2c-.3.1-.6.3-.8.5-.2.2-.4.5-.5.8-.1.3-.2.7-.2,1.1,0,.8.2,1.5.7,1.9.5.5,1.1.7,1.9.7s.8,0,1.3-.1v-1.8Z"/><path class="uuid-ef853fe0-1efd-4722-9258-0bae57e3d3ab" d="m220.6,97.2h-4l.6-.7-1.7-2.5h-1.1v2.5l.6.7h-3.8l.6-.7v-7.4l-.6-.7h5.7c1.2,0,2.1.2,2.7.7.6.5.8,1.1.8,1.9s-.2,1.1-.6,1.6c-.4.5-.9.8-1.5,1.1l2.5,3.5Zm-3.1-5.9c0-.2,0-.4-.2-.6-.1-.1-.3-.3-.4-.3-.2,0-.4-.1-.6-.1h-2v2.2h1.7c.4,0,.8-.1,1.1-.3.3-.2.4-.5.4-.8"/><path class="uuid-ef853fe0-1efd-4722-9258-0bae57e3d3ab" d="m235.3,92.8c0,1.1-.2,1.9-.7,2.6-.5.7-1.1,1.2-1.9,1.5-.8.3-1.6.5-2.5.5s-1.8-.2-2.6-.5c-.8-.3-1.4-.8-1.9-1.5-.5-.7-.7-1.6-.7-2.6s.1-1.5.4-2.1c.3-.6.7-1.1,1.2-1.4.5-.4,1.1-.6,1.7-.8.6-.2,1.3-.3,1.9-.3s1.3,0,1.9.3c.6.2,1.2.4,1.7.8.5.4.9.8,1.2,1.4.3.6.4,1.3.4,2.1m-2.8,0c0-.9-.2-1.5-.6-2-.4-.5-1-.7-1.8-.7s-1,.1-1.4.3c-.4.2-.6.5-.8.9-.2.4-.2.9-.2,1.4s0,.8.1,1.1c0,.3.2.6.4.9.2.2.4.4.7.6.3.1.7.2,1.1.2s.8,0,1.1-.2c.3-.1.6-.3.7-.6.2-.2.3-.5.4-.8,0-.3.1-.7.1-1.1"/><path class="uuid-ef853fe0-1efd-4722-9258-0bae57e3d3ab" d="m249.5,88.4l-.6.7v4.9c0,.6,0,1.1-.3,1.6-.2.4-.5.8-.8,1-.4.3-.8.5-1.4.6-.6.1-1.3.2-2.1.2s-1.5,0-2-.2c-.6-.1-1-.3-1.4-.6-.4-.3-.6-.6-.8-1-.2-.4-.3-.9-.3-1.5v-4.9l-.6-.7h3.8l-.6.7v4.8c0,.5.2.9.5,1.2.3.3.8.4,1.4.4s1-.1,1.4-.4c.3-.3.5-.6.5-1.2v-4.8l-.6-.7h3.8Z"/><path class="uuid-ef853fe0-1efd-4722-9258-0bae57e3d3ab" d="m263.1,91.3c0,1.3-.4,2.1-1.2,2.6-.8.5-1.9.7-3.1.7h-1.6v1.9l.6.7h-3.8l.6-.7v-7.4l-.6-.7h4.9c.7,0,1.4,0,2,.2.6.2,1.2.5,1.6.9.4.4.7,1,.7,1.8m-2.8.2c0-.5-.1-.8-.4-1-.3-.2-.7-.3-1.2-.3h-1.5v2.6h1.3c.6,0,1.1-.1,1.4-.3.3-.2.5-.6.5-1.1"/></g></g></svg>